<mxfile host="app.diagrams.net" modified="2024-04-17T03:31:22.569Z" agent="Mozilla/5.0 (Windows NT 10.0; Win64; x64) AppleWebKit/537.36 (KHTML, like Gecko) Chrome/123.0.0.0 Safari/537.36 Edg/123.0.0.0" etag="DJF5ln_NNwvv8xM2rPi0" version="24.2.5" type="device">
  <diagram name="Page-1" id="AnPFD44V5W-fUOJucUlq">
    <mxGraphModel dx="331" dy="194" grid="1" gridSize="10" guides="1" tooltips="1" connect="1" arrows="1" fold="1" page="1" pageScale="1" pageWidth="850" pageHeight="1100" background="#FFFFFF" math="0" shadow="0">
      <root>
        <mxCell id="0" />
        <mxCell id="1" parent="0" />
        <mxCell id="-mLXam0UxJP80K3dlQmh-66" style="edgeStyle=orthogonalEdgeStyle;rounded=0;orthogonalLoop=1;jettySize=auto;html=1;exitX=0.5;exitY=1;exitDx=0;exitDy=0;entryX=0.5;entryY=0;entryDx=0;entryDy=0;" edge="1" parent="1" source="-mLXam0UxJP80K3dlQmh-5" target="-mLXam0UxJP80K3dlQmh-62">
          <mxGeometry relative="1" as="geometry" />
        </mxCell>
        <mxCell id="-mLXam0UxJP80K3dlQmh-5" value="Input username." style="shape=parallelogram;perimeter=parallelogramPerimeter;whiteSpace=wrap;html=1;fixedSize=1;" vertex="1" parent="1">
          <mxGeometry x="260" y="150" width="140" height="60" as="geometry" />
        </mxCell>
        <mxCell id="-mLXam0UxJP80K3dlQmh-74" style="edgeStyle=orthogonalEdgeStyle;rounded=0;orthogonalLoop=1;jettySize=auto;html=1;exitX=0.5;exitY=1;exitDx=0;exitDy=0;entryX=0.5;entryY=0;entryDx=0;entryDy=0;" edge="1" parent="1" source="-mLXam0UxJP80K3dlQmh-6" target="-mLXam0UxJP80K3dlQmh-63">
          <mxGeometry relative="1" as="geometry" />
        </mxCell>
        <mxCell id="-mLXam0UxJP80K3dlQmh-6" value="Input password." style="shape=parallelogram;perimeter=parallelogramPerimeter;whiteSpace=wrap;html=1;fixedSize=1;" vertex="1" parent="1">
          <mxGeometry x="260" y="460" width="140" height="60" as="geometry" />
        </mxCell>
        <mxCell id="-mLXam0UxJP80K3dlQmh-84" style="edgeStyle=orthogonalEdgeStyle;rounded=0;orthogonalLoop=1;jettySize=auto;html=1;exitX=0.5;exitY=1;exitDx=0;exitDy=0;entryX=0.5;entryY=0;entryDx=0;entryDy=0;" edge="1" parent="1" source="-mLXam0UxJP80K3dlQmh-7" target="-mLXam0UxJP80K3dlQmh-12">
          <mxGeometry relative="1" as="geometry" />
        </mxCell>
        <mxCell id="-mLXam0UxJP80K3dlQmh-7" value="Input menu selection." style="shape=parallelogram;perimeter=parallelogramPerimeter;whiteSpace=wrap;html=1;fixedSize=1;" vertex="1" parent="1">
          <mxGeometry x="260" y="770" width="140" height="60" as="geometry" />
        </mxCell>
        <mxCell id="-mLXam0UxJP80K3dlQmh-143" style="edgeStyle=orthogonalEdgeStyle;rounded=0;orthogonalLoop=1;jettySize=auto;html=1;exitX=1;exitY=0.5;exitDx=0;exitDy=0;entryX=0;entryY=0.5;entryDx=0;entryDy=0;" edge="1" parent="1" source="-mLXam0UxJP80K3dlQmh-9" target="-mLXam0UxJP80K3dlQmh-40">
          <mxGeometry relative="1" as="geometry" />
        </mxCell>
        <mxCell id="-mLXam0UxJP80K3dlQmh-9" value="Execute report syntax." style="rounded=1;whiteSpace=wrap;html=1;" vertex="1" parent="1">
          <mxGeometry x="650" y="1085" width="120" height="60" as="geometry" />
        </mxCell>
        <mxCell id="-mLXam0UxJP80K3dlQmh-85" style="edgeStyle=orthogonalEdgeStyle;rounded=0;orthogonalLoop=1;jettySize=auto;html=1;exitX=0.5;exitY=1;exitDx=0;exitDy=0;entryX=0.5;entryY=0;entryDx=0;entryDy=0;" edge="1" parent="1" source="-mLXam0UxJP80K3dlQmh-12" target="-mLXam0UxJP80K3dlQmh-13">
          <mxGeometry relative="1" as="geometry" />
        </mxCell>
        <mxCell id="-mLXam0UxJP80K3dlQmh-12" value="Connect to database." style="shape=parallelogram;perimeter=parallelogramPerimeter;whiteSpace=wrap;html=1;fixedSize=1;" vertex="1" parent="1">
          <mxGeometry x="260" y="900" width="140" height="60" as="geometry" />
        </mxCell>
        <mxCell id="-mLXam0UxJP80K3dlQmh-86" style="edgeStyle=orthogonalEdgeStyle;rounded=0;orthogonalLoop=1;jettySize=auto;html=1;exitX=0.5;exitY=1;exitDx=0;exitDy=0;entryX=0.5;entryY=0;entryDx=0;entryDy=0;" edge="1" parent="1" source="-mLXam0UxJP80K3dlQmh-13" target="-mLXam0UxJP80K3dlQmh-18">
          <mxGeometry relative="1" as="geometry" />
        </mxCell>
        <mxCell id="-mLXam0UxJP80K3dlQmh-87" value="No" style="edgeLabel;html=1;align=center;verticalAlign=middle;resizable=0;points=[];" vertex="1" connectable="0" parent="-mLXam0UxJP80K3dlQmh-86">
          <mxGeometry x="0.4055" y="-1" relative="1" as="geometry">
            <mxPoint as="offset" />
          </mxGeometry>
        </mxCell>
        <mxCell id="-mLXam0UxJP80K3dlQmh-95" style="edgeStyle=orthogonalEdgeStyle;rounded=0;orthogonalLoop=1;jettySize=auto;html=1;exitX=1;exitY=0.5;exitDx=0;exitDy=0;entryX=0;entryY=0.5;entryDx=0;entryDy=0;" edge="1" parent="1" source="-mLXam0UxJP80K3dlQmh-13" target="-mLXam0UxJP80K3dlQmh-22">
          <mxGeometry relative="1" as="geometry" />
        </mxCell>
        <mxCell id="-mLXam0UxJP80K3dlQmh-97" value="Yes" style="edgeLabel;html=1;align=center;verticalAlign=middle;resizable=0;points=[];" vertex="1" connectable="0" parent="-mLXam0UxJP80K3dlQmh-95">
          <mxGeometry x="0.1616" y="1" relative="1" as="geometry">
            <mxPoint as="offset" />
          </mxGeometry>
        </mxCell>
        <mxCell id="-mLXam0UxJP80K3dlQmh-13" value="Read reports operation selected?" style="rhombus;whiteSpace=wrap;html=1;" vertex="1" parent="1">
          <mxGeometry x="250" y="1040" width="160" height="150" as="geometry" />
        </mxCell>
        <mxCell id="-mLXam0UxJP80K3dlQmh-88" style="edgeStyle=orthogonalEdgeStyle;rounded=0;orthogonalLoop=1;jettySize=auto;html=1;exitX=0.5;exitY=1;exitDx=0;exitDy=0;entryX=0.5;entryY=0;entryDx=0;entryDy=0;" edge="1" parent="1" source="-mLXam0UxJP80K3dlQmh-18" target="-mLXam0UxJP80K3dlQmh-19">
          <mxGeometry relative="1" as="geometry" />
        </mxCell>
        <mxCell id="-mLXam0UxJP80K3dlQmh-89" value="No" style="edgeLabel;html=1;align=center;verticalAlign=middle;resizable=0;points=[];" vertex="1" connectable="0" parent="-mLXam0UxJP80K3dlQmh-88">
          <mxGeometry x="0.4792" relative="1" as="geometry">
            <mxPoint as="offset" />
          </mxGeometry>
        </mxCell>
        <mxCell id="-mLXam0UxJP80K3dlQmh-98" style="edgeStyle=orthogonalEdgeStyle;rounded=0;orthogonalLoop=1;jettySize=auto;html=1;exitX=1;exitY=0.5;exitDx=0;exitDy=0;entryX=0;entryY=0.5;entryDx=0;entryDy=0;" edge="1" parent="1" source="-mLXam0UxJP80K3dlQmh-18" target="-mLXam0UxJP80K3dlQmh-25">
          <mxGeometry relative="1" as="geometry" />
        </mxCell>
        <mxCell id="-mLXam0UxJP80K3dlQmh-99" value="Yes" style="edgeLabel;html=1;align=center;verticalAlign=middle;resizable=0;points=[];" vertex="1" connectable="0" parent="-mLXam0UxJP80K3dlQmh-98">
          <mxGeometry x="-0.0239" relative="1" as="geometry">
            <mxPoint as="offset" />
          </mxGeometry>
        </mxCell>
        <mxCell id="-mLXam0UxJP80K3dlQmh-18" value="Update record operation selected?" style="rhombus;whiteSpace=wrap;html=1;" vertex="1" parent="1">
          <mxGeometry x="250" y="1250" width="160" height="150" as="geometry" />
        </mxCell>
        <mxCell id="-mLXam0UxJP80K3dlQmh-93" style="edgeStyle=orthogonalEdgeStyle;rounded=0;orthogonalLoop=1;jettySize=auto;html=1;exitX=0.5;exitY=1;exitDx=0;exitDy=0;entryX=0.5;entryY=0;entryDx=0;entryDy=0;" edge="1" parent="1" source="-mLXam0UxJP80K3dlQmh-19" target="-mLXam0UxJP80K3dlQmh-20">
          <mxGeometry relative="1" as="geometry" />
        </mxCell>
        <mxCell id="-mLXam0UxJP80K3dlQmh-94" value="No" style="edgeLabel;html=1;align=center;verticalAlign=middle;resizable=0;points=[];" vertex="1" connectable="0" parent="-mLXam0UxJP80K3dlQmh-93">
          <mxGeometry x="0.4693" relative="1" as="geometry">
            <mxPoint as="offset" />
          </mxGeometry>
        </mxCell>
        <mxCell id="-mLXam0UxJP80K3dlQmh-114" style="edgeStyle=orthogonalEdgeStyle;rounded=0;orthogonalLoop=1;jettySize=auto;html=1;exitX=1;exitY=0.5;exitDx=0;exitDy=0;entryX=0;entryY=0.5;entryDx=0;entryDy=0;" edge="1" parent="1" source="-mLXam0UxJP80K3dlQmh-19" target="-mLXam0UxJP80K3dlQmh-33">
          <mxGeometry relative="1" as="geometry" />
        </mxCell>
        <mxCell id="-mLXam0UxJP80K3dlQmh-128" value="Yes" style="edgeLabel;html=1;align=center;verticalAlign=middle;resizable=0;points=[];" vertex="1" connectable="0" parent="-mLXam0UxJP80K3dlQmh-114">
          <mxGeometry x="0.3705" y="2" relative="1" as="geometry">
            <mxPoint as="offset" />
          </mxGeometry>
        </mxCell>
        <mxCell id="-mLXam0UxJP80K3dlQmh-19" value="Create record operation selected?" style="rhombus;whiteSpace=wrap;html=1;" vertex="1" parent="1">
          <mxGeometry x="250" y="1470" width="160" height="150" as="geometry" />
        </mxCell>
        <mxCell id="-mLXam0UxJP80K3dlQmh-127" style="edgeStyle=orthogonalEdgeStyle;rounded=0;orthogonalLoop=1;jettySize=auto;html=1;exitX=1;exitY=0.5;exitDx=0;exitDy=0;entryX=0;entryY=0.5;entryDx=0;entryDy=0;" edge="1" parent="1" source="-mLXam0UxJP80K3dlQmh-20" target="-mLXam0UxJP80K3dlQmh-47">
          <mxGeometry relative="1" as="geometry" />
        </mxCell>
        <mxCell id="-mLXam0UxJP80K3dlQmh-129" value="Yes" style="edgeLabel;html=1;align=center;verticalAlign=middle;resizable=0;points=[];" vertex="1" connectable="0" parent="-mLXam0UxJP80K3dlQmh-127">
          <mxGeometry x="0.3447" y="1" relative="1" as="geometry">
            <mxPoint as="offset" />
          </mxGeometry>
        </mxCell>
        <mxCell id="-mLXam0UxJP80K3dlQmh-153" style="edgeStyle=orthogonalEdgeStyle;rounded=0;orthogonalLoop=1;jettySize=auto;html=1;exitX=0.5;exitY=1;exitDx=0;exitDy=0;entryX=0.5;entryY=0;entryDx=0;entryDy=0;" edge="1" parent="1" source="-mLXam0UxJP80K3dlQmh-20" target="-mLXam0UxJP80K3dlQmh-152">
          <mxGeometry relative="1" as="geometry" />
        </mxCell>
        <mxCell id="-mLXam0UxJP80K3dlQmh-155" value="No" style="edgeLabel;html=1;align=center;verticalAlign=middle;resizable=0;points=[];" vertex="1" connectable="0" parent="-mLXam0UxJP80K3dlQmh-153">
          <mxGeometry x="0.2691" y="1" relative="1" as="geometry">
            <mxPoint y="-1" as="offset" />
          </mxGeometry>
        </mxCell>
        <mxCell id="-mLXam0UxJP80K3dlQmh-20" value="Delete record operation selected?" style="rhombus;whiteSpace=wrap;html=1;" vertex="1" parent="1">
          <mxGeometry x="250" y="1690" width="160" height="150" as="geometry" />
        </mxCell>
        <mxCell id="-mLXam0UxJP80K3dlQmh-61" style="edgeStyle=orthogonalEdgeStyle;rounded=0;orthogonalLoop=1;jettySize=auto;html=1;exitX=0.5;exitY=1;exitDx=0;exitDy=0;entryX=0.5;entryY=0;entryDx=0;entryDy=0;" edge="1" parent="1" source="-mLXam0UxJP80K3dlQmh-21" target="-mLXam0UxJP80K3dlQmh-5">
          <mxGeometry relative="1" as="geometry" />
        </mxCell>
        <mxCell id="-mLXam0UxJP80K3dlQmh-21" value="Start" style="ellipse;whiteSpace=wrap;html=1;" vertex="1" parent="1">
          <mxGeometry x="270" y="20" width="120" height="80" as="geometry" />
        </mxCell>
        <mxCell id="-mLXam0UxJP80K3dlQmh-142" style="edgeStyle=orthogonalEdgeStyle;rounded=0;orthogonalLoop=1;jettySize=auto;html=1;exitX=1;exitY=0.5;exitDx=0;exitDy=0;entryX=0;entryY=0.5;entryDx=0;entryDy=0;" edge="1" parent="1" source="-mLXam0UxJP80K3dlQmh-22" target="-mLXam0UxJP80K3dlQmh-9">
          <mxGeometry relative="1" as="geometry" />
        </mxCell>
        <mxCell id="-mLXam0UxJP80K3dlQmh-22" value="Input report/ query selection." style="shape=parallelogram;perimeter=parallelogramPerimeter;whiteSpace=wrap;html=1;fixedSize=1;" vertex="1" parent="1">
          <mxGeometry x="460" y="1085" width="140" height="60" as="geometry" />
        </mxCell>
        <mxCell id="-mLXam0UxJP80K3dlQmh-105" style="edgeStyle=orthogonalEdgeStyle;rounded=0;orthogonalLoop=1;jettySize=auto;html=1;exitX=1;exitY=0.5;exitDx=0;exitDy=0;entryX=0;entryY=0.5;entryDx=0;entryDy=0;" edge="1" parent="1" source="-mLXam0UxJP80K3dlQmh-23" target="-mLXam0UxJP80K3dlQmh-26">
          <mxGeometry relative="1" as="geometry" />
        </mxCell>
        <mxCell id="-mLXam0UxJP80K3dlQmh-23" value="Print record primary keys." style="rounded=1;whiteSpace=wrap;html=1;" vertex="1" parent="1">
          <mxGeometry x="1340" y="1295" width="120" height="60" as="geometry" />
        </mxCell>
        <mxCell id="-mLXam0UxJP80K3dlQmh-101" style="edgeStyle=orthogonalEdgeStyle;rounded=0;orthogonalLoop=1;jettySize=auto;html=1;exitX=1;exitY=0.5;exitDx=0;exitDy=0;entryX=0;entryY=0.5;entryDx=0;entryDy=0;" edge="1" parent="1" source="-mLXam0UxJP80K3dlQmh-24" target="-mLXam0UxJP80K3dlQmh-27">
          <mxGeometry relative="1" as="geometry" />
        </mxCell>
        <mxCell id="-mLXam0UxJP80K3dlQmh-24" value="Input table to update." style="shape=parallelogram;perimeter=parallelogramPerimeter;whiteSpace=wrap;html=1;fixedSize=1;" vertex="1" parent="1">
          <mxGeometry x="640" y="1295" width="140" height="60" as="geometry" />
        </mxCell>
        <mxCell id="-mLXam0UxJP80K3dlQmh-100" style="edgeStyle=orthogonalEdgeStyle;rounded=0;orthogonalLoop=1;jettySize=auto;html=1;exitX=1;exitY=0.5;exitDx=0;exitDy=0;entryX=0;entryY=0.5;entryDx=0;entryDy=0;" edge="1" parent="1" source="-mLXam0UxJP80K3dlQmh-25" target="-mLXam0UxJP80K3dlQmh-24">
          <mxGeometry relative="1" as="geometry" />
        </mxCell>
        <mxCell id="-mLXam0UxJP80K3dlQmh-25" value="Print database tables." style="rounded=1;whiteSpace=wrap;html=1;" vertex="1" parent="1">
          <mxGeometry x="480" y="1295" width="120" height="60" as="geometry" />
        </mxCell>
        <mxCell id="-mLXam0UxJP80K3dlQmh-106" style="edgeStyle=orthogonalEdgeStyle;rounded=0;orthogonalLoop=1;jettySize=auto;html=1;exitX=1;exitY=0.5;exitDx=0;exitDy=0;entryX=0;entryY=0.5;entryDx=0;entryDy=0;" edge="1" parent="1" source="-mLXam0UxJP80K3dlQmh-26" target="-mLXam0UxJP80K3dlQmh-29">
          <mxGeometry relative="1" as="geometry" />
        </mxCell>
        <mxCell id="-mLXam0UxJP80K3dlQmh-26" value="Input primary key." style="shape=parallelogram;perimeter=parallelogramPerimeter;whiteSpace=wrap;html=1;fixedSize=1;" vertex="1" parent="1">
          <mxGeometry x="1500" y="1295" width="140" height="60" as="geometry" />
        </mxCell>
        <mxCell id="-mLXam0UxJP80K3dlQmh-102" style="edgeStyle=orthogonalEdgeStyle;rounded=0;orthogonalLoop=1;jettySize=auto;html=1;exitX=1;exitY=0.5;exitDx=0;exitDy=0;entryX=0;entryY=0.5;entryDx=0;entryDy=0;" edge="1" parent="1" source="-mLXam0UxJP80K3dlQmh-27" target="-mLXam0UxJP80K3dlQmh-28">
          <mxGeometry relative="1" as="geometry" />
        </mxCell>
        <mxCell id="-mLXam0UxJP80K3dlQmh-27" value="Print table fields." style="rounded=1;whiteSpace=wrap;html=1;" vertex="1" parent="1">
          <mxGeometry x="820" y="1295" width="120" height="60" as="geometry" />
        </mxCell>
        <mxCell id="-mLXam0UxJP80K3dlQmh-103" style="edgeStyle=orthogonalEdgeStyle;rounded=0;orthogonalLoop=1;jettySize=auto;html=1;exitX=1;exitY=0.5;exitDx=0;exitDy=0;entryX=0;entryY=0.5;entryDx=0;entryDy=0;" edge="1" parent="1" source="-mLXam0UxJP80K3dlQmh-28" target="-mLXam0UxJP80K3dlQmh-30">
          <mxGeometry relative="1" as="geometry" />
        </mxCell>
        <mxCell id="-mLXam0UxJP80K3dlQmh-28" value="Input field." style="shape=parallelogram;perimeter=parallelogramPerimeter;whiteSpace=wrap;html=1;fixedSize=1;" vertex="1" parent="1">
          <mxGeometry x="980" y="1295" width="140" height="60" as="geometry" />
        </mxCell>
        <mxCell id="-mLXam0UxJP80K3dlQmh-107" style="edgeStyle=orthogonalEdgeStyle;rounded=0;orthogonalLoop=1;jettySize=auto;html=1;exitX=1;exitY=0.5;exitDx=0;exitDy=0;entryX=0;entryY=0.5;entryDx=0;entryDy=0;" edge="1" parent="1" source="-mLXam0UxJP80K3dlQmh-29" target="-mLXam0UxJP80K3dlQmh-41">
          <mxGeometry relative="1" as="geometry" />
        </mxCell>
        <mxCell id="-mLXam0UxJP80K3dlQmh-29" value="Update record." style="rounded=1;whiteSpace=wrap;html=1;" vertex="1" parent="1">
          <mxGeometry x="1680" y="1295" width="120" height="60" as="geometry" />
        </mxCell>
        <mxCell id="-mLXam0UxJP80K3dlQmh-104" style="edgeStyle=orthogonalEdgeStyle;rounded=0;orthogonalLoop=1;jettySize=auto;html=1;exitX=1;exitY=0.5;exitDx=0;exitDy=0;entryX=0;entryY=0.5;entryDx=0;entryDy=0;" edge="1" parent="1" source="-mLXam0UxJP80K3dlQmh-30" target="-mLXam0UxJP80K3dlQmh-23">
          <mxGeometry relative="1" as="geometry" />
        </mxCell>
        <mxCell id="-mLXam0UxJP80K3dlQmh-30" value="Input new field value." style="shape=parallelogram;perimeter=parallelogramPerimeter;whiteSpace=wrap;html=1;fixedSize=1;" vertex="1" parent="1">
          <mxGeometry x="1160" y="1295" width="140" height="60" as="geometry" />
        </mxCell>
        <mxCell id="-mLXam0UxJP80K3dlQmh-116" style="edgeStyle=orthogonalEdgeStyle;rounded=0;orthogonalLoop=1;jettySize=auto;html=1;exitX=1;exitY=0.5;exitDx=0;exitDy=0;entryX=0;entryY=0.5;entryDx=0;entryDy=0;" edge="1" parent="1" source="-mLXam0UxJP80K3dlQmh-32" target="-mLXam0UxJP80K3dlQmh-35">
          <mxGeometry relative="1" as="geometry" />
        </mxCell>
        <mxCell id="-mLXam0UxJP80K3dlQmh-32" value="Input table to update." style="shape=parallelogram;perimeter=parallelogramPerimeter;whiteSpace=wrap;html=1;fixedSize=1;" vertex="1" parent="1">
          <mxGeometry x="650" y="1515" width="140" height="60" as="geometry" />
        </mxCell>
        <mxCell id="-mLXam0UxJP80K3dlQmh-115" style="edgeStyle=orthogonalEdgeStyle;rounded=0;orthogonalLoop=1;jettySize=auto;html=1;exitX=1;exitY=0.5;exitDx=0;exitDy=0;entryX=0;entryY=0.5;entryDx=0;entryDy=0;" edge="1" parent="1" source="-mLXam0UxJP80K3dlQmh-33" target="-mLXam0UxJP80K3dlQmh-32">
          <mxGeometry relative="1" as="geometry" />
        </mxCell>
        <mxCell id="-mLXam0UxJP80K3dlQmh-33" value="Print database tables." style="rounded=1;whiteSpace=wrap;html=1;" vertex="1" parent="1">
          <mxGeometry x="490" y="1515" width="120" height="60" as="geometry" />
        </mxCell>
        <mxCell id="-mLXam0UxJP80K3dlQmh-117" style="edgeStyle=orthogonalEdgeStyle;rounded=0;orthogonalLoop=1;jettySize=auto;html=1;exitX=1;exitY=0.5;exitDx=0;exitDy=0;entryX=0;entryY=0.5;entryDx=0;entryDy=0;" edge="1" parent="1" source="-mLXam0UxJP80K3dlQmh-35" target="-mLXam0UxJP80K3dlQmh-38">
          <mxGeometry relative="1" as="geometry" />
        </mxCell>
        <mxCell id="-mLXam0UxJP80K3dlQmh-35" value="Print table field." style="rounded=1;whiteSpace=wrap;html=1;" vertex="1" parent="1">
          <mxGeometry x="830" y="1515" width="120" height="60" as="geometry" />
        </mxCell>
        <mxCell id="-mLXam0UxJP80K3dlQmh-123" style="edgeStyle=orthogonalEdgeStyle;rounded=0;orthogonalLoop=1;jettySize=auto;html=1;exitX=1;exitY=0.5;exitDx=0;exitDy=0;entryX=0;entryY=0.5;entryDx=0;entryDy=0;" edge="1" parent="1" source="-mLXam0UxJP80K3dlQmh-37" target="-mLXam0UxJP80K3dlQmh-42">
          <mxGeometry relative="1" as="geometry" />
        </mxCell>
        <mxCell id="-mLXam0UxJP80K3dlQmh-37" value="Execute create statement.&amp;nbsp;" style="rounded=1;whiteSpace=wrap;html=1;" vertex="1" parent="1">
          <mxGeometry x="1330" y="1515" width="120" height="60" as="geometry" />
        </mxCell>
        <mxCell id="-mLXam0UxJP80K3dlQmh-118" style="edgeStyle=orthogonalEdgeStyle;rounded=0;orthogonalLoop=1;jettySize=auto;html=1;exitX=1;exitY=0.5;exitDx=0;exitDy=0;entryX=0;entryY=0.5;entryDx=0;entryDy=0;" edge="1" parent="1" source="-mLXam0UxJP80K3dlQmh-38" target="-mLXam0UxJP80K3dlQmh-39">
          <mxGeometry relative="1" as="geometry" />
        </mxCell>
        <mxCell id="-mLXam0UxJP80K3dlQmh-38" value="Input field value." style="shape=parallelogram;perimeter=parallelogramPerimeter;whiteSpace=wrap;html=1;fixedSize=1;" vertex="1" parent="1">
          <mxGeometry x="990" y="1515" width="140" height="60" as="geometry" />
        </mxCell>
        <mxCell id="-mLXam0UxJP80K3dlQmh-119" style="edgeStyle=orthogonalEdgeStyle;rounded=0;orthogonalLoop=1;jettySize=auto;html=1;exitX=0.5;exitY=0;exitDx=0;exitDy=0;entryX=0.5;entryY=0;entryDx=0;entryDy=0;" edge="1" parent="1" source="-mLXam0UxJP80K3dlQmh-39" target="-mLXam0UxJP80K3dlQmh-35">
          <mxGeometry relative="1" as="geometry" />
        </mxCell>
        <mxCell id="-mLXam0UxJP80K3dlQmh-120" value="Yes" style="edgeLabel;html=1;align=center;verticalAlign=middle;resizable=0;points=[];" vertex="1" connectable="0" parent="-mLXam0UxJP80K3dlQmh-119">
          <mxGeometry x="-0.0919" y="-3" relative="1" as="geometry">
            <mxPoint as="offset" />
          </mxGeometry>
        </mxCell>
        <mxCell id="-mLXam0UxJP80K3dlQmh-121" style="edgeStyle=orthogonalEdgeStyle;rounded=0;orthogonalLoop=1;jettySize=auto;html=1;exitX=1;exitY=0.5;exitDx=0;exitDy=0;entryX=0;entryY=0.5;entryDx=0;entryDy=0;" edge="1" parent="1" source="-mLXam0UxJP80K3dlQmh-39" target="-mLXam0UxJP80K3dlQmh-37">
          <mxGeometry relative="1" as="geometry" />
        </mxCell>
        <mxCell id="-mLXam0UxJP80K3dlQmh-122" value="No" style="edgeLabel;html=1;align=center;verticalAlign=middle;resizable=0;points=[];" vertex="1" connectable="0" parent="-mLXam0UxJP80K3dlQmh-121">
          <mxGeometry x="-0.0009" y="2" relative="1" as="geometry">
            <mxPoint as="offset" />
          </mxGeometry>
        </mxCell>
        <mxCell id="-mLXam0UxJP80K3dlQmh-39" value="Additionally table field?" style="rhombus;whiteSpace=wrap;html=1;" vertex="1" parent="1">
          <mxGeometry x="1170" y="1487.5" width="120" height="115" as="geometry" />
        </mxCell>
        <mxCell id="-mLXam0UxJP80K3dlQmh-144" style="edgeStyle=orthogonalEdgeStyle;rounded=0;orthogonalLoop=1;jettySize=auto;html=1;exitX=1;exitY=0.5;exitDx=0;exitDy=0;entryX=0;entryY=0.5;entryDx=0;entryDy=0;" edge="1" parent="1" source="-mLXam0UxJP80K3dlQmh-40" target="-mLXam0UxJP80K3dlQmh-139">
          <mxGeometry relative="1" as="geometry">
            <mxPoint x="1010" y="1115" as="targetPoint" />
            <Array as="points">
              <mxPoint x="2180" y="1115" />
            </Array>
          </mxGeometry>
        </mxCell>
        <mxCell id="-mLXam0UxJP80K3dlQmh-40" value="Print result set." style="shape=parallelogram;perimeter=parallelogramPerimeter;whiteSpace=wrap;html=1;fixedSize=1;" vertex="1" parent="1">
          <mxGeometry x="820" y="1085" width="140" height="60" as="geometry" />
        </mxCell>
        <mxCell id="-mLXam0UxJP80K3dlQmh-108" style="edgeStyle=orthogonalEdgeStyle;rounded=0;orthogonalLoop=1;jettySize=auto;html=1;exitX=1;exitY=0.5;exitDx=0;exitDy=0;entryX=0;entryY=0.5;entryDx=0;entryDy=0;" edge="1" parent="1" source="-mLXam0UxJP80K3dlQmh-41">
          <mxGeometry relative="1" as="geometry">
            <mxPoint x="2020" y="1325" as="targetPoint" />
          </mxGeometry>
        </mxCell>
        <mxCell id="-mLXam0UxJP80K3dlQmh-41" value="Print update record." style="shape=parallelogram;perimeter=parallelogramPerimeter;whiteSpace=wrap;html=1;fixedSize=1;" vertex="1" parent="1">
          <mxGeometry x="1840" y="1295" width="140" height="60" as="geometry" />
        </mxCell>
        <mxCell id="-mLXam0UxJP80K3dlQmh-125" style="edgeStyle=orthogonalEdgeStyle;rounded=0;orthogonalLoop=1;jettySize=auto;html=1;exitX=1;exitY=0.5;exitDx=0;exitDy=0;entryX=0;entryY=0.5;entryDx=0;entryDy=0;" edge="1" parent="1" source="-mLXam0UxJP80K3dlQmh-42" target="-mLXam0UxJP80K3dlQmh-124">
          <mxGeometry relative="1" as="geometry" />
        </mxCell>
        <mxCell id="-mLXam0UxJP80K3dlQmh-42" value="Print new record." style="shape=parallelogram;perimeter=parallelogramPerimeter;whiteSpace=wrap;html=1;fixedSize=1;" vertex="1" parent="1">
          <mxGeometry x="1490" y="1515" width="140" height="60" as="geometry" />
        </mxCell>
        <mxCell id="-mLXam0UxJP80K3dlQmh-132" style="edgeStyle=orthogonalEdgeStyle;rounded=0;orthogonalLoop=1;jettySize=auto;html=1;exitX=1;exitY=0.5;exitDx=0;exitDy=0;entryX=0;entryY=0.5;entryDx=0;entryDy=0;" edge="1" parent="1" source="-mLXam0UxJP80K3dlQmh-45" target="-mLXam0UxJP80K3dlQmh-48">
          <mxGeometry relative="1" as="geometry" />
        </mxCell>
        <mxCell id="-mLXam0UxJP80K3dlQmh-45" value="Print record primary keys." style="rounded=1;whiteSpace=wrap;html=1;" vertex="1" parent="1">
          <mxGeometry x="830" y="1735" width="120" height="60" as="geometry" />
        </mxCell>
        <mxCell id="-mLXam0UxJP80K3dlQmh-131" style="edgeStyle=orthogonalEdgeStyle;rounded=0;orthogonalLoop=1;jettySize=auto;html=1;exitX=1;exitY=0.5;exitDx=0;exitDy=0;entryX=0;entryY=0.5;entryDx=0;entryDy=0;" edge="1" parent="1" source="-mLXam0UxJP80K3dlQmh-46" target="-mLXam0UxJP80K3dlQmh-45">
          <mxGeometry relative="1" as="geometry" />
        </mxCell>
        <mxCell id="-mLXam0UxJP80K3dlQmh-46" value="Input table." style="shape=parallelogram;perimeter=parallelogramPerimeter;whiteSpace=wrap;html=1;fixedSize=1;" vertex="1" parent="1">
          <mxGeometry x="650" y="1735" width="140" height="60" as="geometry" />
        </mxCell>
        <mxCell id="-mLXam0UxJP80K3dlQmh-130" style="edgeStyle=orthogonalEdgeStyle;rounded=0;orthogonalLoop=1;jettySize=auto;html=1;exitX=1;exitY=0.5;exitDx=0;exitDy=0;entryX=0;entryY=0.5;entryDx=0;entryDy=0;" edge="1" parent="1" source="-mLXam0UxJP80K3dlQmh-47" target="-mLXam0UxJP80K3dlQmh-46">
          <mxGeometry relative="1" as="geometry" />
        </mxCell>
        <mxCell id="-mLXam0UxJP80K3dlQmh-47" value="Print database tables." style="rounded=1;whiteSpace=wrap;html=1;" vertex="1" parent="1">
          <mxGeometry x="490" y="1735" width="120" height="60" as="geometry" />
        </mxCell>
        <mxCell id="-mLXam0UxJP80K3dlQmh-133" style="edgeStyle=orthogonalEdgeStyle;rounded=0;orthogonalLoop=1;jettySize=auto;html=1;exitX=1;exitY=0.5;exitDx=0;exitDy=0;entryX=0;entryY=0.5;entryDx=0;entryDy=0;" edge="1" parent="1" source="-mLXam0UxJP80K3dlQmh-48" target="-mLXam0UxJP80K3dlQmh-51">
          <mxGeometry relative="1" as="geometry" />
        </mxCell>
        <mxCell id="-mLXam0UxJP80K3dlQmh-48" value="Input primary key." style="shape=parallelogram;perimeter=parallelogramPerimeter;whiteSpace=wrap;html=1;fixedSize=1;" vertex="1" parent="1">
          <mxGeometry x="990" y="1735" width="140" height="60" as="geometry" />
        </mxCell>
        <mxCell id="-mLXam0UxJP80K3dlQmh-134" style="edgeStyle=orthogonalEdgeStyle;rounded=0;orthogonalLoop=1;jettySize=auto;html=1;exitX=1;exitY=0.5;exitDx=0;exitDy=0;entryX=0;entryY=0.5;entryDx=0;entryDy=0;" edge="1" parent="1" source="-mLXam0UxJP80K3dlQmh-51" target="-mLXam0UxJP80K3dlQmh-53">
          <mxGeometry relative="1" as="geometry" />
        </mxCell>
        <mxCell id="-mLXam0UxJP80K3dlQmh-51" value="Delete record." style="rounded=1;whiteSpace=wrap;html=1;" vertex="1" parent="1">
          <mxGeometry x="1170" y="1735" width="120" height="60" as="geometry" />
        </mxCell>
        <mxCell id="-mLXam0UxJP80K3dlQmh-138" style="edgeStyle=orthogonalEdgeStyle;rounded=0;orthogonalLoop=1;jettySize=auto;html=1;exitX=1;exitY=0.5;exitDx=0;exitDy=0;entryX=0;entryY=0.5;entryDx=0;entryDy=0;" edge="1" parent="1" source="-mLXam0UxJP80K3dlQmh-53" target="-mLXam0UxJP80K3dlQmh-137">
          <mxGeometry relative="1" as="geometry" />
        </mxCell>
        <mxCell id="-mLXam0UxJP80K3dlQmh-53" value="&amp;nbsp; &amp;nbsp;Print 10 records, 5 below and 5 above deleted primary key value." style="shape=parallelogram;perimeter=parallelogramPerimeter;whiteSpace=wrap;html=1;fixedSize=1;" vertex="1" parent="1">
          <mxGeometry x="1330" y="1735" width="140" height="60" as="geometry" />
        </mxCell>
        <mxCell id="-mLXam0UxJP80K3dlQmh-67" style="edgeStyle=orthogonalEdgeStyle;rounded=0;orthogonalLoop=1;jettySize=auto;html=1;exitX=1;exitY=0.5;exitDx=0;exitDy=0;entryX=1;entryY=0.5;entryDx=0;entryDy=0;" edge="1" parent="1" source="-mLXam0UxJP80K3dlQmh-62" target="-mLXam0UxJP80K3dlQmh-5">
          <mxGeometry relative="1" as="geometry">
            <Array as="points">
              <mxPoint x="430" y="335" />
              <mxPoint x="430" y="180" />
            </Array>
          </mxGeometry>
        </mxCell>
        <mxCell id="-mLXam0UxJP80K3dlQmh-70" value="No" style="edgeLabel;html=1;align=center;verticalAlign=middle;resizable=0;points=[];" vertex="1" connectable="0" parent="-mLXam0UxJP80K3dlQmh-67">
          <mxGeometry x="-0.2197" y="1" relative="1" as="geometry">
            <mxPoint as="offset" />
          </mxGeometry>
        </mxCell>
        <mxCell id="-mLXam0UxJP80K3dlQmh-71" style="edgeStyle=orthogonalEdgeStyle;rounded=0;orthogonalLoop=1;jettySize=auto;html=1;exitX=0.5;exitY=1;exitDx=0;exitDy=0;entryX=0.5;entryY=0;entryDx=0;entryDy=0;" edge="1" parent="1" source="-mLXam0UxJP80K3dlQmh-62" target="-mLXam0UxJP80K3dlQmh-6">
          <mxGeometry relative="1" as="geometry" />
        </mxCell>
        <mxCell id="-mLXam0UxJP80K3dlQmh-72" value="Yes" style="edgeLabel;html=1;align=center;verticalAlign=middle;resizable=0;points=[];" vertex="1" connectable="0" parent="-mLXam0UxJP80K3dlQmh-71">
          <mxGeometry x="-0.1826" y="-2" relative="1" as="geometry">
            <mxPoint as="offset" />
          </mxGeometry>
        </mxCell>
        <mxCell id="-mLXam0UxJP80K3dlQmh-62" value="Correct username?" style="rhombus;whiteSpace=wrap;html=1;" vertex="1" parent="1">
          <mxGeometry x="250" y="260" width="160" height="150" as="geometry" />
        </mxCell>
        <mxCell id="-mLXam0UxJP80K3dlQmh-75" style="edgeStyle=orthogonalEdgeStyle;rounded=0;orthogonalLoop=1;jettySize=auto;html=1;exitX=1;exitY=0.5;exitDx=0;exitDy=0;entryX=1;entryY=0.5;entryDx=0;entryDy=0;" edge="1" parent="1" source="-mLXam0UxJP80K3dlQmh-63" target="-mLXam0UxJP80K3dlQmh-6">
          <mxGeometry relative="1" as="geometry">
            <Array as="points">
              <mxPoint x="430" y="645" />
              <mxPoint x="430" y="490" />
            </Array>
          </mxGeometry>
        </mxCell>
        <mxCell id="-mLXam0UxJP80K3dlQmh-76" value="No" style="edgeLabel;html=1;align=center;verticalAlign=middle;resizable=0;points=[];" vertex="1" connectable="0" parent="-mLXam0UxJP80K3dlQmh-75">
          <mxGeometry x="-0.3861" y="-1" relative="1" as="geometry">
            <mxPoint as="offset" />
          </mxGeometry>
        </mxCell>
        <mxCell id="-mLXam0UxJP80K3dlQmh-63" value="Correct password?" style="rhombus;whiteSpace=wrap;html=1;" vertex="1" parent="1">
          <mxGeometry x="250" y="570" width="160" height="150" as="geometry" />
        </mxCell>
        <mxCell id="-mLXam0UxJP80K3dlQmh-81" style="edgeStyle=orthogonalEdgeStyle;rounded=0;orthogonalLoop=1;jettySize=auto;html=1;exitX=0.5;exitY=1;exitDx=0;exitDy=0;entryX=0.5;entryY=0;entryDx=0;entryDy=0;" edge="1" parent="1" source="-mLXam0UxJP80K3dlQmh-63" target="-mLXam0UxJP80K3dlQmh-7">
          <mxGeometry relative="1" as="geometry">
            <Array as="points">
              <mxPoint x="330" y="760" />
              <mxPoint x="330" y="760" />
            </Array>
          </mxGeometry>
        </mxCell>
        <mxCell id="-mLXam0UxJP80K3dlQmh-82" value="Yes" style="edgeLabel;html=1;align=center;verticalAlign=middle;resizable=0;points=[];" vertex="1" connectable="0" parent="-mLXam0UxJP80K3dlQmh-81">
          <mxGeometry x="-0.0857" y="-1" relative="1" as="geometry">
            <mxPoint as="offset" />
          </mxGeometry>
        </mxCell>
        <mxCell id="-mLXam0UxJP80K3dlQmh-126" style="edgeStyle=orthogonalEdgeStyle;rounded=0;orthogonalLoop=1;jettySize=auto;html=1;exitX=1;exitY=0.5;exitDx=0;exitDy=0;entryX=0;entryY=0.5;entryDx=0;entryDy=0;" edge="1" parent="1" source="-mLXam0UxJP80K3dlQmh-124" target="-mLXam0UxJP80K3dlQmh-139">
          <mxGeometry relative="1" as="geometry">
            <mxPoint x="1830" y="1545" as="targetPoint" />
            <Array as="points">
              <mxPoint x="2180" y="1545" />
            </Array>
          </mxGeometry>
        </mxCell>
        <mxCell id="-mLXam0UxJP80K3dlQmh-124" value="Kill database connection." style="rounded=1;whiteSpace=wrap;html=1;" vertex="1" parent="1">
          <mxGeometry x="1670" y="1515" width="120" height="60" as="geometry" />
        </mxCell>
        <mxCell id="-mLXam0UxJP80K3dlQmh-136" style="edgeStyle=orthogonalEdgeStyle;rounded=0;orthogonalLoop=1;jettySize=auto;html=1;exitX=1;exitY=0.5;exitDx=0;exitDy=0;entryX=0;entryY=0.5;entryDx=0;entryDy=0;" edge="1" parent="1" source="-mLXam0UxJP80K3dlQmh-137" target="-mLXam0UxJP80K3dlQmh-139">
          <mxGeometry relative="1" as="geometry">
            <mxPoint x="1670" y="1765" as="targetPoint" />
            <Array as="points">
              <mxPoint x="2180" y="1765" />
            </Array>
          </mxGeometry>
        </mxCell>
        <mxCell id="-mLXam0UxJP80K3dlQmh-137" value="Kill database connection." style="rounded=1;whiteSpace=wrap;html=1;" vertex="1" parent="1">
          <mxGeometry x="1510" y="1735" width="120" height="60" as="geometry" />
        </mxCell>
        <mxCell id="-mLXam0UxJP80K3dlQmh-162" style="edgeStyle=orthogonalEdgeStyle;rounded=0;orthogonalLoop=1;jettySize=auto;html=1;exitX=1;exitY=0.5;exitDx=0;exitDy=0;entryX=1;entryY=0.5;entryDx=0;entryDy=0;" edge="1" parent="1" source="-mLXam0UxJP80K3dlQmh-139" target="-mLXam0UxJP80K3dlQmh-158">
          <mxGeometry relative="1" as="geometry" />
        </mxCell>
        <mxCell id="-mLXam0UxJP80K3dlQmh-163" value="No" style="edgeLabel;html=1;align=center;verticalAlign=middle;resizable=0;points=[];" vertex="1" connectable="0" parent="-mLXam0UxJP80K3dlQmh-162">
          <mxGeometry x="-0.9354" y="-2" relative="1" as="geometry">
            <mxPoint as="offset" />
          </mxGeometry>
        </mxCell>
        <mxCell id="-mLXam0UxJP80K3dlQmh-139" value="Perform another task?" style="rhombus;whiteSpace=wrap;html=1;" vertex="1" parent="1">
          <mxGeometry x="2180" y="1267.5" width="120" height="115" as="geometry" />
        </mxCell>
        <mxCell id="-mLXam0UxJP80K3dlQmh-140" style="edgeStyle=orthogonalEdgeStyle;rounded=0;orthogonalLoop=1;jettySize=auto;html=1;exitX=1;exitY=0.5;exitDx=0;exitDy=0;" edge="1" parent="1" source="-mLXam0UxJP80K3dlQmh-141" target="-mLXam0UxJP80K3dlQmh-139">
          <mxGeometry relative="1" as="geometry" />
        </mxCell>
        <mxCell id="-mLXam0UxJP80K3dlQmh-141" value="Kill database connection." style="rounded=1;whiteSpace=wrap;html=1;" vertex="1" parent="1">
          <mxGeometry x="2020" y="1295" width="120" height="60" as="geometry" />
        </mxCell>
        <mxCell id="-mLXam0UxJP80K3dlQmh-150" style="edgeStyle=orthogonalEdgeStyle;rounded=0;orthogonalLoop=1;jettySize=auto;html=1;exitX=1;exitY=0.5;exitDx=0;exitDy=0;entryX=1.02;entryY=0.519;entryDx=0;entryDy=0;entryPerimeter=0;" edge="1" parent="1" source="-mLXam0UxJP80K3dlQmh-139" target="-mLXam0UxJP80K3dlQmh-7">
          <mxGeometry relative="1" as="geometry">
            <Array as="points">
              <mxPoint x="2320" y="1325" />
              <mxPoint x="2320" y="801" />
            </Array>
          </mxGeometry>
        </mxCell>
        <mxCell id="-mLXam0UxJP80K3dlQmh-151" value="Yes" style="edgeLabel;html=1;align=center;verticalAlign=middle;resizable=0;points=[];" vertex="1" connectable="0" parent="-mLXam0UxJP80K3dlQmh-150">
          <mxGeometry x="-0.9135" y="-1" relative="1" as="geometry">
            <mxPoint as="offset" />
          </mxGeometry>
        </mxCell>
        <mxCell id="-mLXam0UxJP80K3dlQmh-159" style="edgeStyle=orthogonalEdgeStyle;rounded=0;orthogonalLoop=1;jettySize=auto;html=1;exitX=0.5;exitY=1;exitDx=0;exitDy=0;entryX=0.5;entryY=0;entryDx=0;entryDy=0;" edge="1" parent="1" source="-mLXam0UxJP80K3dlQmh-152" target="-mLXam0UxJP80K3dlQmh-157">
          <mxGeometry relative="1" as="geometry" />
        </mxCell>
        <mxCell id="-mLXam0UxJP80K3dlQmh-160" value="Yes" style="edgeLabel;html=1;align=center;verticalAlign=middle;resizable=0;points=[];" vertex="1" connectable="0" parent="-mLXam0UxJP80K3dlQmh-159">
          <mxGeometry x="0.2172" y="1" relative="1" as="geometry">
            <mxPoint as="offset" />
          </mxGeometry>
        </mxCell>
        <mxCell id="-mLXam0UxJP80K3dlQmh-152" value="Exit?" style="rhombus;whiteSpace=wrap;html=1;" vertex="1" parent="1">
          <mxGeometry x="250" y="1910" width="160" height="150" as="geometry" />
        </mxCell>
        <mxCell id="-mLXam0UxJP80K3dlQmh-161" style="edgeStyle=orthogonalEdgeStyle;rounded=0;orthogonalLoop=1;jettySize=auto;html=1;exitX=0.5;exitY=1;exitDx=0;exitDy=0;entryX=0.5;entryY=0;entryDx=0;entryDy=0;" edge="1" parent="1" source="-mLXam0UxJP80K3dlQmh-157" target="-mLXam0UxJP80K3dlQmh-158">
          <mxGeometry relative="1" as="geometry" />
        </mxCell>
        <mxCell id="-mLXam0UxJP80K3dlQmh-157" value="Kill database connection." style="rounded=1;whiteSpace=wrap;html=1;" vertex="1" parent="1">
          <mxGeometry x="270" y="2140" width="120" height="60" as="geometry" />
        </mxCell>
        <mxCell id="-mLXam0UxJP80K3dlQmh-158" value="Stop" style="ellipse;whiteSpace=wrap;html=1;" vertex="1" parent="1">
          <mxGeometry x="270" y="2280" width="120" height="80" as="geometry" />
        </mxCell>
      </root>
    </mxGraphModel>
  </diagram>
</mxfile>
